<mxfile host="app.diagrams.net" modified="2022-10-17T05:00:54.836Z" agent="5.0 (Windows NT 10.0; Win64; x64) AppleWebKit/537.36 (KHTML, like Gecko) Chrome/105.0.5195.127 Safari/537.36" etag="Keyn9kfoG2C6m1ytSG1i" version="20.4.1" type="github">
  <diagram id="uhMSqS9C0jqgO5NpFfLt" name="Page-1">
    <mxGraphModel dx="1038" dy="489" grid="1" gridSize="10" guides="1" tooltips="1" connect="1" arrows="1" fold="1" page="1" pageScale="1" pageWidth="850" pageHeight="1100" math="0" shadow="0">
      <root>
        <mxCell id="0" />
        <mxCell id="1" parent="0" />
        <mxCell id="fWD_8ChIjUKBFCSAX9jQ-1" value="Database" style="rounded=0;whiteSpace=wrap;html=1;" vertex="1" parent="1">
          <mxGeometry x="360" y="60" width="120" height="190" as="geometry" />
        </mxCell>
        <mxCell id="fWD_8ChIjUKBFCSAX9jQ-2" value="Warehouse App Win Forms" style="rounded=0;whiteSpace=wrap;html=1;" vertex="1" parent="1">
          <mxGeometry x="150" y="280" width="120" height="60" as="geometry" />
        </mxCell>
        <mxCell id="fWD_8ChIjUKBFCSAX9jQ-3" value="Reporting Service" style="rounded=0;whiteSpace=wrap;html=1;" vertex="1" parent="1">
          <mxGeometry x="340" y="280" width="120" height="60" as="geometry" />
        </mxCell>
        <mxCell id="fWD_8ChIjUKBFCSAX9jQ-4" value="Private Network" style="rounded=1;whiteSpace=wrap;html=1;fillColor=none;align=right;" vertex="1" parent="1">
          <mxGeometry x="40" y="30" width="760" height="340" as="geometry" />
        </mxCell>
      </root>
    </mxGraphModel>
  </diagram>
</mxfile>
